# xmcd
#
# Track frame offsets: 
#        150
#        14438
#        32844
#        48456
#        68630
#        92333
#        107985
#        124926
#        142532
#        155779
#        173745
#        193034
#        208474
#        226524
#        241432
#        257389
#        269926
#        283028
#        295477
#        310199
#        324958
#
# Disc length: 4515 seconds
#
# Revision: 1
# Processed by: cddbd v1.5.2PL0 Copyright (c) Steve Scherf et al.
# Submitted via: ExactAudioCopy v1.0b3
#
DISCID=3411a115
DTITLE=Asleep At The Wheel  - Collision Course and The Wheel (1977, 78)
DYEAR=2002
DGENRE=Western Swing
TTITLE0=Pipe Dreams
TTITLE1=Song of the Wanderer (Where Shall I Go?)
TTITLE2=Pine Grove Blues
TTITLE3=One O'clock Jump
TTITLE4=Louisana
TTITLE5=Texas Me and You
TTITLE6=Ruler Of My Heart
TTITLE7=Don't Forget The Trains
TTITLE8=Ain't Nobody Here But Us Chickens
TTITLE9=Ghost Dancer
TTITLE10=The Wheel
TTITLE11=I Wonder
TTITLE12=Am I High?
TTITLE13=A Dollar Short And A Day Late
TTITLE14=My Baby Thinks She"s A Train
TTITLE15=Ragtime Annie
TTITLE16=When Love Goes Wrong
TTITLE17=Somebody Stole His Body
TTITLE18=Let's Face Up
TTITLE19=I Can't Handle It Now
TTITLE20=Red Stick
EXTD=
EXTT0=
EXTT1=
EXTT2=
EXTT3=
EXTT4=
EXTT5=
EXTT6=
EXTT7=
EXTT8=
EXTT9=
EXTT10=
EXTT11=
EXTT12=
EXTT13=
EXTT14=
EXTT15=
EXTT16=
EXTT17=
EXTT18=
EXTT19=
EXTT20=
PLAYORDER=
